<svg width='24' height='24' viewBox='0 0 24 24' xmlns='http://www.w3.org/2000/svg' xmlns:xlink='http://www.w3.org/1999/xlink'><rect width='24' height='24' stroke='none' fill='#000000' opacity='0'/>


<g transform="matrix(0.89 0 0 0.89 12 12)" >
<path style="stroke: none; stroke-width: 1; stroke-dasharray: none; stroke-linecap: butt; stroke-dashoffset: 0; stroke-linejoin: miter; stroke-miterlimit: 4; fill: rgb(0,0,0); fill-rule: nonzero; opacity: 1;" transform=" translate(-12, -12)" d="M 22.59 1.39 C 21.09 -0.1100000000000001 17.91 1.47 15.07 3.46 C 14.998837752345544 3.501085542839439 14.911162247654456 3.501085542839439 14.84 3.46 C 13.858294716730006 3.128500951148239 12.825806948713716 2.972781484496601 11.789999999999996 2.999999999999999 C 8.858726991027464 3.0065786492476136 6.114305075529561 4.440268254664126 4.434528529448871 6.842507936085207 C 2.7547519833681804 9.244747617506288 2.350100306569658 12.314531739461557 3.349999999999998 15.069999999999999 C 3.3891283408941217 15.141674187119515 3.3891283408941217 15.228325812880486 3.35 15.3 C 1.46 18 -0.08 21.14 1.38 22.61 C 1.8147019980186048 23.0229952753093 2.4015159204807364 23.236711456946743 2.999999999999999 23.2 C 4.57 23.2 6.720000000000001 22.09 8.879999999999999 20.57 C 8.949392252140715 20.535999257608584 9.030607747859284 20.535999257608584 9.1 20.57 C 9.978287265401223 20.85600117797145 10.896320448289988 21.001131423795776 11.82 21 C 16.790562748477143 21 20.82 16.970562748477143 20.82 12 C 20.822821574217702 11.087559024901802 20.68452056798065 10.18016949617577 20.41 9.309999999999997 C 20.37617842572908 9.24408535316487 20.37617842572908 9.165914646835132 20.41 9.1 C 20.84 8.48 21.24 7.88 21.58 7.3 C 23.33 4.38 23.65 2.45 22.59 1.39 Z M 12.81 9.58 C 12.81 9.994213562373096 12.474213562373096 10.33 12.06 10.33 C 11.645786437626905 10.33 11.31 9.994213562373096 11.31 9.58 C 11.31 9.165786437626904 11.645786437626905 8.83 12.06 8.83 C 12.474213562373096 8.83 12.81 9.165786437626904 12.81 9.58 Z M 9.81 8 C 8.860623161714868 8.008592009589098 7.986993752915952 7.482868117568511 7.55 6.640000000000001 C 7.498326242604502 6.530904312722204 7.531987491440441 6.400466973482942 7.63 6.33 C 8.91330939092446 5.397516722705367 10.475289993954716 4.928569950238043 12.060000000000002 4.999999999999999 C 12.180189258312149 5.011427232351022 12.27818436874774 5.101256083583647 12.3 5.22 C 12.373343625508102 5.926925983954631 12.144762124607839 6.631954821280236 11.670579083726553 7.161363999452917 C 11.196396042845267 7.690773177625598 10.520705183984315 7.9953335612382155 9.810000000000002 8 Z M 5.8100000000000005 11.620000000000001 C 5.8100000000000005 10.653501687796112 6.5935016877961115 9.870000000000001 7.5600000000000005 9.870000000000001 C 8.52649831220389 9.870000000000001 9.31 10.653501687796112 9.31 11.620000000000001 C 9.31 12.58649831220389 8.52649831220389 13.370000000000001 7.5600000000000005 13.370000000000001 C 7.088856836577015 13.3701230905835 6.6375665941876045 13.180267914544476 6.308203472716613 12.84337649315415 C 5.978840351245623 12.506485071763821 5.799230996960661 12.051020088918772 5.81 11.58 Z M 5.5600000000000005 18.48 C 5.652034640321593 18.548338323398024 5.777965359678408 18.548338323398024 5.87 18.48 C 8.401322164587457 16.806506229823395 10.747807619804867 14.8689796682296 12.870000000000001 12.700000000000006 C 14.911769803662345 10.682410057250737 16.75367329959557 8.472125862130863 18.369999999999994 6.100000000000001 C 18.438338323398025 6.0079653596784075 18.438338323398025 5.882034640321592 18.37 5.79 C 18.040026928168906 5.425635328172367 17.678633313469525 5.091011610858126 17.29 4.789999999999998 C 17.224150391595394 4.740712639674234 17.186757809373105 4.662188217007433 17.189999999999998 4.58 C 17.192738642101133 4.497072189098452 17.238117174899166 4.421441301101732 17.31 4.38 C 18.176339737717 3.8197058192097115 19.101960812737566 3.3568952816994293 20.07 3.000000000000001 C 20.365678202227834 2.8740111039131326 20.679681030774717 2.7963544904015385 20.999999999999996 2.77 C 21.134443448978857 2.764195933486121 21.24935973157735 2.865852645015558 21.26 3 C 21.330000000000002 4.21 19.090000000000003 8.469999999999999 13.790000000000003 13.77 C 8.490000000000002 19.07 4.21 21.29 3 21.26 C 2.86984272707275 21.244414994586567 2.7738267670611503 21.130941587300132 2.78 21 C 2.8002013931694685 20.65715928006 2.874450332856224 20.319664099665655 2.999999999999999 20 C 3.33307080875136 19.13696010915505 3.751831723839236 18.309488540941405 4.249999999999998 17.53 C 4.2875979166784886 17.460510851015982 4.36101667162208 17.418005256048637 4.44 17.42 C 4.523817050635976 17.410989242735972 4.606530953044705 17.444826748266816 4.66 17.51 C 4.93439182331053 17.843796966806813 5.235376433617017 18.154814397456853 5.56 18.44 Z" stroke-linecap="round" />
</g>
</svg>